<svg width="100" height="107" viewBox="0 0 100 107" fill="none" xmlns="http://www.w3.org/2000/svg">
<g clip-path="url(#clip0_226_26)">
<path d="M94.5207 42.9252H89.2198C88.2344 38.8149 86.6965 34.9653 84.691 31.4439L88.5019 27.3569C89.5308 26.256 90.0964 24.7874 90.0964 23.228C90.0964 21.6709 89.5265 20.2 88.5019 19.1014L82.1504 12.3122C80.0905 10.1058 76.4905 10.1081 74.4393 12.3099L70.4674 16.5342C67.2134 14.5047 63.7244 12.9406 59.8808 11.9352V5.86518C59.8808 2.64631 57.4772 0 54.4689 0H45.4897C42.4815 0 40.1148 2.64631 40.1148 5.86518V11.9329C36.2735 12.936 32.7627 14.5024 29.5043 16.5342L25.5346 12.3099C23.4768 10.1035 19.8747 10.1058 17.8105 12.3076L11.4633 19.0968C10.4453 20.1837 9.86448 21.6872 9.86448 23.2233C9.86448 24.7804 10.4279 26.2467 11.4589 27.3476L15.2698 31.4439C13.2665 34.9653 11.7264 38.8149 10.7433 42.9252H5.44015C2.42969 42.9252 0 45.5133 0 48.7252V58.326C0 61.5472 2.42969 64.0771 5.44015 64.0771H10.7433C11.7264 68.1874 13.2643 72.0603 15.2655 75.5817L11.4545 79.685C10.4235 80.7859 9.85796 82.2592 9.85796 83.8186C9.85796 85.378 10.4257 86.8512 11.4545 87.9521L17.8061 94.746C18.8371 95.8468 20.2053 96.452 21.6605 96.452C23.1157 96.452 24.4861 95.8445 25.5172 94.746L29.5043 90.5193C32.7627 92.5512 36.2735 94.1152 40.1148 95.123V101.184C40.1148 104.403 42.4815 106.998 45.4897 106.998H54.4689C57.4772 106.998 59.8808 104.403 59.8808 101.184V95.1207C63.7244 94.1152 67.2134 92.5512 70.4718 90.5193L74.4241 94.7366C75.4552 95.8422 76.8255 96.4473 78.2851 96.4473C79.7425 96.4473 81.115 95.8399 82.1439 94.7413L88.4954 87.9521C89.5243 86.8536 90.0877 85.3849 90.092 83.8279C90.092 82.2685 89.5221 80.8045 88.4954 79.7013L84.6888 75.5817C86.69 72.0579 88.2279 68.1827 89.2132 64.0771H94.5163C97.5246 64.0771 99.9978 61.5472 99.9978 58.326V48.7252C100 45.5133 97.529 42.9252 94.5207 42.9252ZM49.9772 71.8019C40.4542 71.8019 32.7323 63.6163 32.7323 53.5268C32.7323 43.4303 40.4542 35.2563 49.9772 35.2563C59.5023 35.2563 67.2286 43.4303 67.2286 53.5268C67.2264 63.6186 59.5023 71.8019 49.9772 71.8019Z" fill="#A994C2"/>
</g>
<defs>
<clipPath id="clip0_226_26">
<rect width="100" height="107" fill="white"/>
</clipPath>
</defs>
</svg>
