<svg width="33" height="33" viewBox="0 0 33 33" fill="none" xmlns="http://www.w3.org/2000/svg">
<g clip-path="url(#clip0_264_41)">
<path d="M31.1918 13.2386H29.4425C29.1174 11.971 28.6099 10.7837 27.948 9.69765L29.2056 8.43717C29.5452 8.09764 29.7318 7.6447 29.7318 7.16377C29.7318 6.68355 29.5437 6.2299 29.2056 5.89109L27.1096 3.79723C26.4299 3.11674 25.2419 3.11746 24.565 3.79651L23.2543 5.09934C22.1804 4.47341 21.029 3.99104 19.7607 3.68094V1.80889C19.7607 0.816153 18.9675 0 17.9747 0H15.0116C14.0189 0 13.2379 0.816153 13.2379 1.80889V3.68023C11.9702 3.9896 10.8117 4.47269 9.73641 5.09934L8.4264 3.79651C7.74735 3.11602 6.55865 3.11674 5.87745 3.79579L3.78287 5.88965C3.44694 6.22487 3.25528 6.68858 3.25528 7.16233C3.25528 7.64255 3.44119 8.09477 3.78144 8.4343L5.03904 9.69765C4.37794 10.7837 3.86973 11.971 3.54528 13.2386H1.79525C0.801797 13.2386 0 14.0368 0 15.0274V17.9884C0 18.9818 0.801797 19.7621 1.79525 19.7621H3.54528C3.86973 21.0298 4.37722 22.2242 5.03761 23.3102L3.78 24.5758C3.43976 24.9153 3.25313 25.3697 3.25313 25.8506C3.25313 26.3315 3.44048 26.7859 3.78 27.1254L5.87601 29.2207C6.21626 29.5602 6.66776 29.7469 7.14798 29.7469C7.6282 29.7469 8.08042 29.5595 8.42066 29.2207L9.73641 27.9172C10.8117 28.5438 11.9702 29.0262 13.2379 29.337V31.2062C13.2379 32.1989 14.0189 32.9993 15.0116 32.9993H17.9747C18.9675 32.9993 19.7607 32.1989 19.7607 31.2062V29.3363C21.029 29.0262 22.1804 28.5438 23.2557 27.9172L24.56 29.2178C24.9002 29.5588 25.3524 29.7454 25.8341 29.7454C26.315 29.7454 26.768 29.5581 27.1075 29.2193L29.2035 27.1254C29.543 26.7866 29.7289 26.3337 29.7304 25.8535C29.7304 25.3725 29.5423 24.921 29.2035 24.5808L27.9473 23.3102C28.6077 22.2235 29.1152 21.0283 29.4404 19.7621H31.1904C32.1831 19.7621 32.9993 18.9818 32.9993 17.9884V15.0274C33 14.0368 32.1846 13.2386 31.1918 13.2386ZM16.4925 22.1445C13.3499 22.1445 10.8016 19.62 10.8016 16.5083C10.8016 13.3944 13.3499 10.8734 16.4925 10.8734C19.6358 10.8734 22.1854 13.3944 22.1854 16.5083C22.1847 19.6207 19.6358 22.1445 16.4925 22.1445Z" fill="#A994C2"/>
</g>
<defs>
<clipPath id="clip0_264_41">
<rect width="33" height="33" fill="white"/>
</clipPath>
</defs>
</svg>
