<svg width="228" height="240" viewBox="0 0 228 240" fill="none" xmlns="http://www.w3.org/2000/svg">
<g clip-path="url(#clip0_242_6)">
<path d="M215.507 96.2809H203.421C201.174 87.0615 197.668 78.4269 193.096 70.5284L201.784 61.3612C204.13 58.892 205.42 55.5978 205.42 52.1001C205.42 48.6077 204.12 45.3083 201.784 42.8443L187.303 27.6162C182.606 22.6672 174.398 22.6724 169.722 27.611L160.666 37.0861C153.246 32.5339 145.292 29.0257 136.528 26.7705V13.1555C136.528 5.93566 131.048 0 124.189 0H103.717C96.8577 0 91.4619 5.93566 91.4619 13.1555V26.7653C82.7035 29.0153 74.699 32.5287 67.2697 37.0861L58.2188 27.611C53.5272 22.662 45.3143 22.6672 40.6078 27.6058L26.1362 42.8338C23.8152 45.2718 22.491 48.6442 22.491 52.0897C22.491 55.5822 23.7755 58.8711 26.1263 61.3403L34.8152 70.5284C30.2476 78.4269 26.7363 87.0615 24.4946 96.2809H12.4035C5.53969 96.2809 0 102.086 0 109.29V130.825C0 138.05 5.53969 143.724 12.4035 143.724H24.4946C26.7363 152.944 30.2426 161.631 34.8053 169.529L26.1164 178.733C23.7656 181.202 22.4761 184.507 22.4761 188.004C22.4761 191.502 23.7706 194.807 26.1164 197.276L40.5979 212.514C42.9487 214.984 46.0682 216.341 49.386 216.341C52.7039 216.341 55.8283 214.978 58.1791 212.514L67.2697 203.034C74.699 207.591 82.7035 211.1 91.4619 213.36V226.954C91.4619 234.174 96.8577 239.995 103.717 239.995H124.189C131.048 239.995 136.528 234.174 136.528 226.954V213.355C145.292 211.1 153.246 207.591 160.676 203.034L169.687 212.493C172.038 214.973 175.162 216.33 178.49 216.33C181.813 216.33 184.942 214.968 187.288 212.504L201.77 197.276C204.115 194.812 205.4 191.518 205.41 188.025C205.41 184.527 204.11 181.244 201.77 178.769L193.091 169.529C197.653 161.625 201.16 152.933 203.406 143.724H215.497C222.356 143.724 227.995 138.05 227.995 130.825V109.29C228 102.086 222.366 96.2809 215.507 96.2809ZM113.948 161.051C92.2355 161.051 74.6295 142.691 74.6295 120.06C74.6295 97.4137 92.2355 79.0795 113.948 79.0795C135.665 79.0795 153.281 97.4137 153.281 120.06C153.276 142.696 135.665 161.051 113.948 161.051Z" fill="#74638A"/>
</g>
<defs>
<clipPath id="clip0_242_6">
<rect width="228" height="240" fill="white"/>
</clipPath>
</defs>
</svg>
