<svg width="138" height="142" viewBox="0 0 138 142" fill="none" xmlns="http://www.w3.org/2000/svg">
<g clip-path="url(#clip0_226_22)">
<path d="M130.439 56.9662H123.123C121.763 51.5114 119.641 46.4026 116.874 41.7293L122.133 36.3054C123.553 34.8444 124.333 32.8954 124.333 30.8259C124.333 28.7595 123.547 26.8074 122.133 25.3495L113.368 16.3396C110.525 13.4114 105.557 13.4145 102.726 16.3365L97.2451 21.9426C92.7544 19.2492 87.9396 17.1736 82.6355 15.8392V7.7837C82.6355 3.51193 79.3186 0 75.1671 0H62.7758C58.6244 0 55.3585 3.51193 55.3585 7.7837V15.8361C50.0574 17.1674 45.2125 19.2461 40.7159 21.9426L35.2377 16.3365C32.398 13.4083 27.4271 13.4114 24.5784 16.3334L15.8193 25.3434C14.4145 26.7858 13.613 28.7812 13.613 30.8197C13.613 32.8861 14.3904 34.8321 15.8133 36.293L21.0724 41.7293C18.3077 46.4026 16.1825 51.5114 14.8257 56.9662H7.50741C3.35297 56.9662 0 60.4009 0 64.6634V77.4046C0 81.6794 3.35297 85.0369 7.50741 85.0369H14.8257C16.1825 90.4917 18.3047 95.6314 21.0664 100.305L15.8073 105.75C14.3844 107.211 13.604 109.166 13.604 111.236C13.604 113.305 14.3874 115.261 15.8073 116.722L24.5724 125.738C25.9953 127.199 27.8834 128.002 29.8915 128.002C31.8997 128.002 33.7908 127.196 35.2137 125.738L40.7159 120.128C45.2125 122.825 50.0574 124.901 55.3585 126.238V134.281C55.3585 138.553 58.6244 141.997 62.7758 141.997H75.1671C79.3186 141.997 82.6355 138.553 82.6355 134.281V126.235C87.9396 124.901 92.7544 122.825 97.2511 120.128L102.705 125.725C104.128 127.192 106.019 127.996 108.033 127.996C110.045 127.996 111.939 127.189 113.359 125.731L122.124 116.722C123.544 115.264 124.321 113.315 124.327 111.248C124.327 109.179 123.541 107.236 122.124 105.772L116.871 100.305C119.632 95.6283 121.754 90.4855 123.114 85.0369H130.433C134.584 85.0369 137.997 81.6794 137.997 77.4046V64.6634C138 60.4009 134.59 56.9662 130.439 56.9662ZM68.9685 95.2885C55.8268 95.2885 45.1705 84.4253 45.1705 71.0355C45.1705 57.6364 55.8268 46.7887 68.9685 46.7887C82.1132 46.7887 92.7755 57.6364 92.7755 71.0355C92.7725 84.4284 82.1132 95.2885 68.9685 95.2885Z" fill="#705F86"/>
</g>
<defs>
<clipPath id="clip0_226_22">
<rect width="138" height="142" fill="white"/>
</clipPath>
</defs>
</svg>
