<?xml version="1.0" encoding="utf-8"?>
<svg viewBox="-602.752 -106.04 1410.826 319.175" xmlns="http://www.w3.org/2000/svg">
  <defs>
    <linearGradient id="paint0_linear_0_1" x1="891" y1="0.170166" x2="891" y2="347.17" gradientUnits="userSpaceOnUse" gradientTransform="matrix(1, 0, 0, 1, -769.540283, -108.086617)">
      <stop offset="0.0001" stop-color="#302F31"/>
    </linearGradient>
    <linearGradient id="paint1_linear_0_1" x1="1038.61" y1="122.85" x2="984.62" y2="431.662" gradientUnits="userSpaceOnUse" gradientTransform="matrix(1, 0, 0, 1, -769.540283, -108.086617)">
      <stop stop-color="#3B383F"/>
    </linearGradient>
    <linearGradient id="paint2_linear_0_1" x1="1038.43" y1="201.85" x2="984.442" y2="510.662" gradientUnits="userSpaceOnUse" gradientTransform="matrix(1, 0, 0, 1, -769.540283, -108.086617)">
      <stop stop-color="#50465A"/>
    </linearGradient>
  </defs>
  <path d="M 1012.46 239.083 C 1012.46 239.083 613.55 239.083 121.46 239.083 C -370.626 239.083 -769.54 239.083 -769.54 239.083 C -769.54 47.44 -370.626 -107.916 121.46 -107.916 C 613.55 -107.916 1012.46 47.44 1012.46 239.083 Z" fill="url(#paint0_linear_0_1)" transform="matrix(1, 0, 0, 1, 2.2737367544323206e-13, 0)"/>
  <path d="M 943.01 246.781 C 459.72 162.293 -658.362 159.411 -658.362 159.411 C -628.546 -11.141 -198.325 -96.404 284.96 -11.916 C 768.25 72.571 972.83 76.229 943.01 246.781 Z" fill="url(#paint1_linear_0_1)" transform="matrix(1, 0, 0, 1, 2.2737367544323206e-13, 0)"/>
  <path d="M 942.83 325.781 C 459.55 241.293 -658.54 238.411 -658.54 238.411 C -628.724 67.859 -198.504 -17.404 284.78 67.083 C 768.07 151.571 972.65 155.229 942.83 325.781 Z" fill="url(#paint2_linear_0_1)" transform="matrix(1, 0, 0, 1, 2.2737367544323206e-13, 0)"/>
</svg>