<?xml version="1.0" encoding="utf-8"?>
<svg viewBox="-598.863 -7.605 1412.554 325.297" xmlns="http://www.w3.org/2000/svg">
  <defs>
    <linearGradient id="paint0_linear_0_1" x1="720" y1="0" x2="720" y2="347" gradientUnits="userSpaceOnUse" gradientTransform="matrix(1, 0, 0, 1, -610.775696, -8.711317)">
      <stop offset="0.0001" stop-color="#302F31"/>
    </linearGradient>
    <linearGradient id="paint1_linear_0_1" x1="867.607" y1="122.68" x2="813.62" y2="431.492" gradientUnits="userSpaceOnUse" gradientTransform="matrix(1, 0, 0, 1, -610.775696, -8.711317)">
      <stop stop-color="#3B383F"/>
    </linearGradient>
  </defs>
  <path d="M 1000.224 338.289 C 1000.224 338.289 601.314 338.289 109.224 338.289 C -382.862 338.289 -781.776 338.289 -781.776 338.289 C -781.776 146.646 -382.862 -8.711 109.224 -8.711 C 601.314 -8.711 1000.224 146.646 1000.224 338.289 Z" fill="url(#paint0_linear_0_1)" transform="matrix(0.9999999999999999, 0, 0, 0.9999999999999999, -1.1368683772161603e-13, 0)"/>
  <path d="M 930.774 345.986 C 930.774 345.986 1212.944 358.455 957.324 350.446 C 474.044 265.958 -670.597 258.617 -670.597 258.617 C -640.782 88.064 -210.561 2.801 272.724 87.289 C 756.014 171.777 960.594 175.434 930.774 345.986 Z" fill="url(#paint1_linear_0_1)" transform="matrix(0.9999999999999999, 0, 0, 0.9999999999999999, -1.1368683772161603e-13, 0)"/>
  <path d="M 968.224 335.289 C 968.224 335.289 654.724 335.289 171.739 335.289 C -311.242 335.289 -702.776 335.289 -702.776 335.289 C -702.776 233.285 -383.291 41.789 194.724 186.789 C 677.704 186.789 968.224 233.285 968.224 335.289 Z" fill="#50465A" transform="matrix(0.9999999999999999, 0, 0, 0.9999999999999999, -1.1368683772161603e-13, 0)"/>
</svg>